<?xml version="1.0" encoding="utf-8"?>
<!-- Generator: Adobe Illustrator 25.4.1, SVG Export Plug-In . SVG Version: 6.00 Build 0)  -->
<svg version="1.1" id="Camada_1" xmlns="http://www.w3.org/2000/svg" xmlns:xlink="http://www.w3.org/1999/xlink" x="0px" y="0px"
	 viewBox="0 0 2000 670" style="enable-background:new 0 0 2000 670;" xml:space="preserve">
<style type="text/css">
	.st0{fill:#FFFFFF;}
	.st1{fill:#FFBA13;}
</style>
<g>
	<path id="LOGO_27_" class="st0" d="M530.6,137.3c-7-5.5-32.2-13.2-48.1-17.6c-3.8-14.2-7.1-24-8.9-28.7
		c-13.7-34.6-17.9-38.8-53-45.3c-32.1-6-80.4-7.1-129.2-6c-48.8-1.1-97.1,0-129.2,6c-35.1,6.5-39.3,10.7-53,45.3
		c-1.9,4.7-5,14.2-8.8,28.1c-15.6,4.3-43.1,12.5-50.5,18.3c-10.4,8.2-52.6,80-40,99.1c12,19.6,26.3,28.8,38.3,20.1
		c11.5-9.8,23.3-98,23.3-98c7.4,0.3,13.8,0.5,19.3,0.7c-15.6,75.8-31,205.6-6.5,360c2.6,16.3,13.5,27.5,31.8,34.7
		c-0.2,1.5-0.3,3-0.3,4.5v35.1c0,20.5,16.7,37.1,37.4,37.1c20.6,0,37.4-16.6,37.4-37.1v-30c26,0.3,62.6,0.2,100.7,0
		c36.4,0.2,71.4,0.3,97.2,0.1v30c0,20.5,16.7,37.1,37.4,37.1c20.6,0,37.4-16.6,37.4-37.1v-35.1c0-1.1-0.1-2.2-0.2-3.2
		c20.4-7.1,32.5-18.6,35.3-35.9c24.5-154.5,9.1-284.3-6.5-360.1c5-0.1,10.7-0.3,17.1-0.6c0,0,11.8,88.2,23.3,98
		c12,8.7,26.3-0.6,38.3-20.1C583.1,217.3,541,145.5,530.6,137.3z M237.4,66.8h113.4c12.4,0,11.2,6.6,11.2,14.8
		c0,8.2,1.2,14.9-11.2,14.9H237.4c-12.4,0-11.8-6.7-11.8-14.9C225.6,73.4,225,66.8,237.4,66.8z M206.7,513.6
		c-8.1,7.6-60.6-3.6-76.6-6.7c-15.9-3-14.7-0.6-20.2-12.8c-5.5-12.2-3.4-44.6,0-46.3c3.4-1.7,2.6-2.3,17.8,2.5
		C168.7,463.1,214.5,493.3,206.7,513.6z M473,494.1c-5.5,12.2-4.3,9.7-20.2,12.8c-15.9,3-68.5,14.3-76.6,6.7
		c-7.8-20.3,38-50.5,79-63.3c15.2-4.7,14.4-4.1,17.8-2.5C476.3,449.5,478.5,481.9,473,494.1z M481.4,348.5
		c-7.1,22.4-18.5,36.7-39.4,39.2c-21,2.4-274.8,2.5-302.3-1.1c-27.5-3.7-32.3-16.8-39.4-39.2C93.2,325,112.6,193.9,120,170
		c7.4-23.9,10.3-32.4,39.4-39.2c29.2-6.8,241.9-5.1,262.9,1.1c20.9,6.3,32,15.2,39.4,39.2C469.1,195,488.5,326.1,481.4,348.5z"/>
	<path class="st1" d="M963.9,306.1c0,15.1-12.2,27.3-27.3,27.3c-15.1,0-27.3-12.2-27.3-27.3c0-15.1,12.2-27.3,27.3-27.3
		C951.7,278.8,963.9,291,963.9,306.1z"/>
	<path class="st0" d="M837.2,259.9h37.3v304.6h-37.3V259.9z"/>
	<path class="st0" d="M918,564.4V357.2h37.3v207.2H918z"/>
	<path class="st0" d="M775.7,513.8c-15.6,8-33.3,12.5-52,12.5c-63.1,0-114.3-51.2-114.3-114.3s51.2-114.3,114.3-114.3
		c18.8,0,36.4,4.5,52,12.5l16.8-32.8c-20.6-10.6-44-16.5-68.8-16.5c-83.5,0-151.1,67.7-151.1,151.1c0,83.5,67.7,151.1,151.1,151.1
		c24.8,0,48.2-6,68.8-16.5L775.7,513.8z"/>
	<path class="st0" d="M1141,518.2c-9.8,5-20.8,7.8-32.5,7.8c-39.5,0-71.5-32-71.5-71.5c0-39.5,32-71.5,71.5-71.5
		c11.7,0,22.8,2.8,32.5,7.8l16.9-33c-14.8-7.6-31.6-11.9-49.4-11.9c-60,0-108.6,48.6-108.6,108.6c0,60,48.6,108.6,108.6,108.6
		c17.8,0,34.6-4.3,49.4-11.9L1141,518.2z"/>
	<polygon class="st0" points="1335.2,561.1 1380,561.3 1289.2,433.8 1367.9,354.4 1314.8,354.7 1243.2,427.1 1243.2,256.7 
		1205.9,256.7 1205.9,561.3 1243.2,561.3 1243.2,480.2 1263,460.3 	"/>
	<path class="st1" d="M1559.5,408.8c16.4-15.3,26.6-37,26.6-61.1c0-45.3-36-82.1-80.9-83.6h-59.9V264h-37.8v0.1v37.6v259.6h37.8
		v-0.1h69.2V561c44.9-1.5,80.9-38.3,80.9-83.6C1595.3,449,1581.1,423.9,1559.5,408.8z M1505.2,301.8c24.1,1.4,43.3,21.4,43.3,45.9
		c0,23.1-17.1,42.2-39.3,45.5c-2.1,0.3-4.2,0.4-6.4,0.4h-57.6v-91.8H1505.2z M1514.5,523.3v0.3h-69.2v-92.1h66.9
		c2.1,0,4.1,0.1,6.2,0.4c22.3,3.2,39.4,22.4,39.4,45.5C1557.7,501.9,1538.6,521.9,1514.5,523.3z"/>
	<path class="st1" d="M1814.1,351.5h-37.3v126.4c-1.2,26.6-23.1,47.8-50,47.8c-27.6,0-49.9-22.3-50-49.8h0.1V351.5h-37.3v124.4
		c0.1,48.1,39.1,87.1,87.3,87.1c44.6,0,81.4-33.5,86.6-76.7l0.7-0.7V351.5z"/>
	<path class="st1" d="M1934.9,436.1c-21.7-10.7-35-18-35-33.1c0-14.8,10.9-24.8,27.2-24.8c15.6,0,28.5,5.4,38.3,16l4.8,5.2
		l19.7-28.2l-3.3-3.4c-14.6-15.3-35-23.4-59-23.4c-37.5,0-64.6,25.1-64.6,59.7c0,38.9,30,53.1,54,64.5l1.6,0.8
		c22.4,10.9,37.2,19.4,37.2,38c0,13.5-8.3,27.9-31.6,27.9c-16.4,0-32.6-7.8-43.4-20.7l-4.8-5.8l-20.6,29l3.1,3.4
		c16.2,18,38.9,27.5,65.6,27.5c50.2,0,68-33.8,68-62.8C1992.4,463.9,1960.5,448.5,1934.9,436.1z"/>
</g>
</svg>
